<?xml version="1.0" encoding="utf-8"?>
<!-- Generator: Adobe Illustrator 17.1.0, SVG Export Plug-In . SVG Version: 6.00 Build 0)  -->
<!DOCTYPE svg PUBLIC "-//W3C//DTD SVG 1.1//EN" "http://www.w3.org/Graphics/SVG/1.1/DTD/svg11.dtd">
<svg version="1.1" id="Capa_1" xmlns="http://www.w3.org/2000/svg" xmlns:xlink="http://www.w3.org/1999/xlink" x="0px" y="0px"
	 viewBox="0 0 393.5 367" enable-background="new 0 0 393.5 367" xml:space="preserve">
<g id="Suciedad_de_vector">
</g>
<g>
	<polygon fill="#003056" points="15.1,220.3 91.4,294.1 160.1,288 192.4,256 268.5,260.4 268.5,334.8 254.3,367 291.9,348.2 
		366.2,294.1 366.2,274.3 393.5,197.7 389.2,128.4 389.1,128.1 329.4,65.2 224.7,0 126.5,9.6 42.6,84.9 0,159.3 	"/>
	<g>
		<polygon fill="#071C2C" points="116.3,171.6 236.9,242.7 177.1,254.7 		"/>
		<polygon fill="#012639" points="393.5,197.7 366.2,274.3 308.4,133.9 		"/>
		<polygon fill="#003056" points="236.7,242.6 261.4,142.9 115.6,171.5 		"/>
		<polygon fill="#012639" points="160.4,287.8 134.1,262.7 15.1,220.3 91.4,294.1 		"/>
		<polygon fill="#4DB3E6" points="0,159.3 15.1,220.3 69.4,180.8 42.6,84.9 		"/>
		<polygon fill="none" points="224.8,0.2 141.8,78.5 131.3,65.2 		"/>
		<polygon fill="#004876" points="126.5,9.6 131.3,65.2 224.8,0.2 		"/>
		<polygon fill="#004876" points="244.7,57.4 224.8,0.2 329.4,65.2 		"/>
		<polygon fill="none" points="202.1,65.7 244.7,57.4 308.4,133.9 279.4,234.3 236.7,242.6 261.4,142.9 		"/>
		<polygon fill="#0076A9" points="393.5,197.7 308.4,133.9 389.2,128.4 		"/>
		<polygon fill="#003056" points="279.4,234.3 366.2,274.3 308.4,133.9 		"/>
		<polygon fill="#00A1DF" points="141.8,78.5 202.1,65.7 245.4,57.3 224.7,0 		"/>
		<polygon fill="#4DB3E6" points="115.6,171.5 261.4,142.9 202.1,65.7 		"/>
		<polygon fill="#003056" points="134.1,262.7 160.4,287.8 191.3,255.9 176.8,254.4 		"/>
		<polygon fill="#004876" points="69.4,180.8 15.1,220.3 134.1,262.7 		"/>
		<polygon fill="#003056" points="42.6,84.9 69.4,180.8 99.5,85.9 		"/>
		<polygon fill="#0076A9" points="224.8,0.2 142.2,80.6 130.2,65.9 		"/>
		<polygon fill="#071C2C" points="116.7,170.2 202.1,65.7 141.8,78.5 		"/>
		<polygon fill="#071C2C" points="366.2,274.3 279.4,234.3 236.7,242.6 268.5,260.4 		"/>
		<polygon fill="#071C2C" points="200.2,223 261.4,142.9 236.7,243.5 		"/>
		<polygon fill="#071C2C" points="261.4,142.9 177.2,96.2 202.1,65.7 		"/>
		<path fill="#E73E51" d="M268.5,260.4"/>
		<polygon fill="#00A1DF" points="268.5,260.4 287.9,294.1 366.2,274.3 		"/>
		<polygon fill="#0058A0" points="268.5,260.4 268.5,298.7 287.1,334.8 287.1,292.8 		"/>
		<polygon fill="#004876" points="366.2,274.3 287.1,334.8 287.1,292.8 		"/>
		<polygon fill="#003056" points="268.5,298.7 268.5,334.8 254.3,367 287.1,334.8 		"/>
		<polygon fill="#0076A9" points="116.3,171.6 81.9,196.7 134.1,262.7 176.8,254.4 		"/>
		<polygon fill="#4DB3E6" points="81.9,196.7 116.3,171.6 141.8,78.5 99.5,85.9 69.4,180.8 		"/>
		<polygon fill="#4DB3E6" points="202.1,65.7 261.4,142.9 291.3,113.1 245.4,57.2 		"/>
		<polygon fill="#00A1DF" points="236.7,242.6 279.4,234.3 308.4,133.9 291.2,113 261.4,142.9 		"/>
		<polygon fill="#071C2C" points="91.4,294.1 134.1,262.7 160.4,287.8 		"/>
		<polygon fill="#0076A9" points="268.5,334.8 287.1,334.8 254.3,367 		"/>
		<polygon fill="#004D71" points="254.3,367 291.9,348.2 287.1,334.8 		"/>
		<polygon fill="#012639" points="291.9,348.2 366.2,294.1 366.2,274.3 287.1,334.8 		"/>
		<polygon fill="#071C2C" points="160.1,288 192.7,255.7 176.8,254.4 		"/>
		<polygon fill="#0076A9" points="131.3,65.2 141.8,78.5 99.5,85.9 		"/>
		<polygon fill="#012639" points="99.2,86.6 42.6,84.9 126.5,9.6 132.4,64.3 		"/>
		<polygon fill="#071C2C" points="176.8,254.4 236.7,242.6 191.4,256.1 		"/>
		<polygon fill="#003056" points="389.1,128.1 308.3,133.7 245.4,57.2 329,64.9 		"/>
		<polygon fill="#012639" points="236.7,242.6 191.3,255.9 268.5,260.4 		"/>
	</g>
</g>
</svg>
